<?xml version="1.0" encoding="utf-8"?>
<!-- Generator: Adobe Illustrator 21.0.0, SVG Export Plug-In . SVG Version: 6.00 Build 0)  -->
<svg version="1.1" id="圖層_1" xmlns="http://www.w3.org/2000/svg" xmlns:xlink="http://www.w3.org/1999/xlink" x="0px" y="0px"
	 viewBox="0 0 213.3 208.4" style="enable-background:new 0 0 213.3 208.4;" xml:space="preserve">
<style type="text/css">
	.st0{fill:#FFFFFF;}
</style>
<rect x="1096.6" y="0.8" style="fill:none;" width="1318.7" height="297"/>
<text transform="matrix(1 0 0 1 1096.6042 142.4951)" class="st0" style="font-family:'Bauhaus93'; font-size:170px;">SUZULOGO </text>
<path class="st0" d="M142.4,0.8H15.9C7.1,0.8,0,7.9,0,16.7l0,126.4c0,14.2,17.2,21.3,27.2,11.3L153.6,28
	C163.7,18,156.5,0.8,142.4,0.8z"/>
<path class="st0" d="M188,11.9l-58.3,58.3c-5.4,5.4-5.4,14.2,0,19.7l58.3,58.3c8.8,8.8,23.7,2.6,23.7-9.8V21.7
	C211.8,9.3,196.8,3.1,188,11.9z"/>
<path class="st0" d="M200.2,184.7L117.6,102c-5.4-5.4-14.2-5.4-19.6,0l-82.7,82.7c-8.8,8.8-2.6,23.7,9.8,23.7h165.4
	C202.8,208.4,209,193.5,200.2,184.7z"/>
</svg>
