<?xml version="1.0" encoding="utf-8"?>
<!-- Generator: Adobe Illustrator 21.0.0, SVG Export Plug-In . SVG Version: 6.00 Build 0)  -->
<svg version="1.1" id="圖層_1" xmlns="http://www.w3.org/2000/svg" xmlns:xlink="http://www.w3.org/1999/xlink" x="0px" y="0px"
	 viewBox="0 0 71.1 13.5" style="enable-background:new 0 0 71.1 13.5;" xml:space="preserve">
<style type="text/css">
	.st0{fill:#FFFFFF;}
</style>
<path class="st0" d="M2599-308.2h-126.4c-8.8,0-15.9,7.1-15.9,15.9v126.4c0,14.2,17.2,21.3,27.2,11.3L2610.3-281
	C2620.3-291,2613.2-308.2,2599-308.2z"/>
<path class="st0" d="M2644.7-297.1l-58.3,58.3c-5.4,5.4-5.4,14.2,0,19.7l58.3,58.3c8.8,8.8,23.7,2.6,23.7-9.8v-116.5
	C2668.4-299.7,2653.5-305.9,2644.7-297.1z"/>
<path class="st0" d="M2656.9-124.3l-82.7-82.7c-5.4-5.4-14.2-5.4-19.6,0l-82.7,82.7c-8.8,8.8-2.6,23.7,9.8,23.7h165.4
	C2659.5-100.6,2665.7-115.5,2656.9-124.3z"/>
<g>
	<path class="st0" d="M0,10.4c1,0.8,2.2,1.2,3.5,1.2c1.7,0,2.6-0.6,2.6-1.8C6.1,9.6,6,9.2,5.8,9C5.6,8.7,5.3,8.5,5,8.3
		c-0.3-0.2-1-0.5-1.9-1C2,6.7,1.2,6.2,0.7,5.6C0.2,5,0,4.4,0,3.6c0-1.1,0.4-2,1.3-2.6c0.9-0.6,2-1,3.4-1C6,0,7,0.2,7.6,0.5v2
		C6.8,2,5.8,1.7,4.6,1.7c-0.8,0-1.4,0.2-1.8,0.5C2.3,2.5,2.1,2.9,2.1,3.4c0,0.5,0.2,0.9,0.5,1.2C3,4.9,3.7,5.3,4.8,5.9
		c1.3,0.6,2.2,1.2,2.7,1.8C7.9,8.3,8.2,9,8.2,9.7c0,1.2-0.4,2.1-1.3,2.7c-0.8,0.6-2,0.9-3.5,0.9c-0.5,0-1.2-0.1-1.8-0.2
		C0.9,13,0.4,12.8,0,12.6V10.4z"/>
	<path class="st0" d="M21.1,7.8c0,3.7-1.7,5.6-5.1,5.6c-3.3,0-4.9-1.8-4.9-5.4V0.2h2v7.7c0,2.4,1,3.7,3,3.7c2,0,2.9-1.2,2.9-3.5V0.2
		h2V7.8z"/>
	<path class="st0" d="M33.5,1l-7.2,10.4h7.1v1.7h-9.9v-0.9l7.2-10.3h-6.6V0.2h9.4V1z"/>
	<path class="st0" d="M46.1,7.8c0,3.7-1.7,5.6-5.1,5.6c-3.3,0-4.9-1.8-4.9-5.4V0.2h2v7.7c0,2.4,1,3.7,3,3.7c2,0,2.9-1.2,2.9-3.5V0.2
		h2V7.8z"/>
	<path class="st0" d="M56.9,13.1h-7V0.2h2v11.2h5V13.1z"/>
	<path class="st0" d="M58,6.8c0-2,0.6-3.7,1.7-4.9S62.4,0,64.3,0c1.8,0,3.3,0.6,4.4,1.8c1.1,1.2,1.6,2.8,1.6,4.7
		c0,2-0.6,3.7-1.7,4.9c-1.1,1.3-2.6,1.9-4.5,1.9c-1.8,0-3.3-0.6-4.4-1.8C58.5,10.3,58,8.7,58,6.8z M60.1,6.7c0,1.4,0.4,2.6,1.1,3.5
		c0.7,0.9,1.7,1.4,2.9,1.4c1.3,0,2.3-0.4,3-1.3c0.7-0.9,1.1-2.1,1.1-3.5c0-1.5-0.3-2.7-1-3.6c-0.7-0.9-1.7-1.3-3-1.3
		c-1.3,0-2.3,0.5-3,1.4C60.4,4.1,60.1,5.3,60.1,6.7z"/>
</g>
</svg>
