<svg id="圖層_1" data-name="圖層 1" xmlns="http://www.w3.org/2000/svg" viewBox="0 0 881.43 207.6"><defs><style>.cls-1{fill:#fff;}</style></defs><title>logo-suzulogoFULL</title><path class="cls-1" d="M142.4.8H15.9A15.88,15.88,0,0,0,0,16.7V143.1c0,14.2,17.2,21.3,27.2,11.3L153.6,28C163.7,18,156.5.8,142.4.8Z" transform="translate(0 -0.8)"/><path class="cls-1" d="M188,11.9,129.7,70.2a14,14,0,0,0,0,19.7L188,148.2a13.86,13.86,0,0,0,23.7-9.8V21.7C211.8,9.3,196.8,3.1,188,11.9Z" transform="translate(0 -0.8)"/><path class="cls-1" d="M200.2,184.7,117.6,102A13.88,13.88,0,0,0,98,102L15.3,184.7a13.86,13.86,0,0,0,9.8,23.7H190.5C202.8,208.4,209,193.5,200.2,184.7Z" transform="translate(0 -0.8)"/><path class="cls-1" d="M299.12,128.6a45.58,45.58,0,0,0,29,9.94c14.08,0,21.54-5,21.54-14.91,0-1.66-.83-5-2.48-6.63-1.66-2.48-4.14-4.14-6.63-5.8s-8.28-4.14-15.74-8.28c-9.11-5-15.74-9.11-19.88-14.08s-5.8-9.94-5.8-16.57c0-9.11,3.31-16.57,10.77-21.54a49.3,49.3,0,0,1,28.16-8.28c10.77,0,19.05,1.66,24,4.14V63.16c-6.63-4.14-14.91-6.63-24.85-6.63-6.63,0-11.6,1.66-14.91,4.14-4.14,2.48-5.8,5.8-5.8,9.94a13.72,13.72,0,0,0,4.14,9.94c3.31,2.48,9.11,5.8,18.22,10.77q16.15,7.45,22.36,14.91c3.31,5,5.8,10.77,5.8,16.57,0,9.94-3.31,17.39-10.77,22.36-6.63,5-16.57,7.45-29,7.45A102.43,102.43,0,0,1,312.38,151a41.7,41.7,0,0,1-13.25-4.14Z" transform="translate(0 -0.8)"/><path class="cls-1" d="M473.9,107.06c0,30.65-14.08,46.39-42.24,46.39-27.33,0-40.59-14.91-40.59-44.73V44.11h16.57v63.78c0,19.88,8.28,30.65,24.85,30.65s24-9.94,24-29V44.11h16.57v63Z" transform="translate(0 -0.8)"/><path class="cls-1" d="M576.61,50.74,517,136.88h58.81V151h-82v-7.45l59.64-85.32H498.75V44.11h77.86Z" transform="translate(0 -0.8)"/><path class="cls-1" d="M681,107.06c0,30.65-14.08,46.39-42.24,46.39-27.33,0-40.59-14.91-40.59-44.73V44.11h16.57v63.78c0,19.88,8.28,30.65,24.85,30.65s24-9.94,24-29V44.11h16.57v63Z" transform="translate(0 -0.8)"/><path class="cls-1" d="M770.43,151h-58V44.11H729v92.77h41.42Z" transform="translate(0 -0.8)"/><path class="cls-1" d="M779.55,98.78c0-16.57,5-30.65,14.08-40.59S816,42.45,831.73,42.45c14.91,0,27.33,5,36.45,14.91s13.25,23.19,13.25,38.93c0,16.57-5,30.65-14.08,40.59-9.11,10.77-21.54,15.74-37.27,15.74-14.91,0-27.33-5-36.45-14.91C783.69,127.77,779.55,114.52,779.55,98.78Zm17.39-.83c0,11.6,3.31,21.54,9.11,29a29.45,29.45,0,0,0,24,11.6c10.77,0,19.05-3.31,24.85-10.77s9.11-17.39,9.11-29c0-12.42-2.48-22.36-8.28-29.82S841.67,58.19,830.9,58.19s-19.05,4.14-24.85,11.6C799.43,76.41,796.94,86.35,796.94,97.95Z" transform="translate(0 -0.8)"/></svg>