<?xml version="1.0" encoding="utf-8"?>
<!-- Generator: Adobe Illustrator 21.0.0, SVG Export Plug-In . SVG Version: 6.00 Build 0)  -->
<svg version="1.1" id="圖層_1" xmlns="http://www.w3.org/2000/svg" xmlns:xlink="http://www.w3.org/1999/xlink" x="0px" y="0px"
	 viewBox="0 0 130 278.2" style="enable-background:new 0 0 130 278.2;" xml:space="preserve">
<style type="text/css">
	.st0{fill:#FFFFFF;}
</style>
<g>
	<path class="st0" d="M85.6,3.8l2-0.1c17.5-1.4,26.9-2,28.2-2c1.8,0,3.2,0.6,4.5,1.8c1.1,1.1,1.7,2.5,1.7,4.2
		c0,1.2-1.1,7.6-3.3,19.3l-0.3,1.5c1.4,0.6,2,1.8,2,3.6c0,1.8-0.9,2.8-2.7,3.2c-0.3,0.1-1.2,0.1-2.6,0.1c-10.4,0-18.7,0.3-25.1,0.8
		c-0.5,1.7-1.8,2.5-3.9,2.5c-1.6,0-2.6-0.7-3.1-2.3c-0.1-0.3-0.3-1.4-0.5-3.1c-0.4-3.6-1.4-10.9-3-21.9c-0.5-3.1-0.7-4.9-0.7-5.1
		c0-1.6,0.7-2.7,2.1-3.2c0.7-0.3,1.4-0.4,2.1-0.4C84.1,2.5,84.9,3,85.6,3.8z M111.3,28.2c0.9-5.7,1.8-11.5,2.7-17.5
		c0.1-0.3,0.1-0.6,0.1-0.8c0-0.7-0.4-1-1.2-1c-1.2,0-7.6,0.5-19.4,1.4c-2,0.1-4.3,0.3-6.6,0.5c0.8,7.1,1.6,13.3,2.3,18.7l2-0.1
		C99.8,28.8,106.5,28.4,111.3,28.2z"/>
	<path class="st0" d="M109.4,85.2c0.6-4.4,1.4-10.8,2.4-19.1c0.1-0.4,0.1-0.7,0.1-0.9c0-0.5-0.3-0.8-0.9-0.8c-0.3,0-0.9,0.1-2,0.1
		c-1.6,0.1-4.7,0.4-9.5,0.8c-5,0.4-9.6,0.7-13.9,1.2c-0.4,0.1-0.7,0.1-0.9,0.1c-1.1,0-2-0.3-2.6-1c-0.5-0.6-0.8-1.4-0.8-2.3
		c0-1.7,0.6-2.8,1.9-3.5c0.4-0.2,1.6-0.3,3.3-0.5c16.4-1.4,25.3-2.1,26.5-2.2c0.3-0.1,0.7-0.1,0.9-0.1c2.6,0,4.3,1.1,5.3,3.2
		c0.3,0.8,0.5,1.6,0.5,2.6c0,0.3-0.1,1-0.2,2.2c-1.1,9.2-2,15.9-2.5,20.2c1.3,0.5,2,1.6,2,3.2c0,1.6-0.7,2.6-2.1,3.2
		c-0.5,0.2-1.6,0.3-3.4,0.4c-5.5,0.3-15,0.9-28.2,1.9c-0.4,0.1-0.7,0.1-0.9,0.1c-2.3,0-3.5-1.2-3.5-3.6c0-2.1,1.1-3.3,3.2-3.6
		C86.3,86.6,94.8,86,109.4,85.2z M117.1,48.7c1.2,0,2.9,1.1,5.3,3.3c2.1,1.9,3.1,3.4,3.1,4.5c0,0.8-0.3,1.5-1,2
		c-0.5,0.4-1.2,0.7-1.8,0.7c-0.9,0-1.7-0.5-2.3-1.6c-1.2-2-2.6-3.8-4.2-5.4c-0.5-0.5-0.8-1.2-0.8-1.8
		C115.4,49.3,116,48.7,117.1,48.7z M123,44.6c1.2,0,2.9,0.9,5.1,2.8c2.1,1.8,3.1,3.2,3.1,4.5c0,0.9-0.3,1.6-1,2
		c-0.5,0.3-1,0.5-1.6,0.5c-0.9,0-1.6-0.5-2.2-1.5c-1.1-1.6-2.4-3.2-4.3-4.9c-0.6-0.6-0.9-1.2-0.9-1.8c0-0.4,0.1-0.8,0.5-1.1
		C122,44.7,122.5,44.6,123,44.6z"/>
	<path class="st0" d="M107,135.8v6c0,0.9-0.2,1.6-0.7,2.1c-0.7,0.8-1.6,1.2-2.8,1.2c-2.4,0-3.5-1.2-3.5-3.4v-2.4c-4,2.4-6,4.7-6,6.6
		c0,1.9,2,2.8,6,2.8c4.5,0,8.7-0.3,12.3-0.7c0.4-0.1,0.7-0.1,1-0.1c1.1,0,2,0.3,2.5,0.9c0.6,0.6,0.9,1.5,0.9,2.6
		c0,2-1.2,3.1-3.4,3.5c-2.3,0.3-6.4,0.5-12.2,0.5c-4.3,0-7.6-0.6-9.9-1.9c-2.9-1.6-4.4-3.9-4.4-6.9c0-3.4,1.8-6.4,5.2-9.3
		c1.4-1.2,3.9-2.7,7.3-4.8l0.4-0.3c-0.4-1.6-1.4-2.4-2.9-2.4c-2.4,0-4.6,0.7-6.5,2.2c-1.1,0.8-2,1.2-3,1.2s-1.8-0.4-2.5-1.2
		c-0.7-0.7-1-1.6-1-2.4c0-0.8,0.4-1.7,1.2-2.5c0.5-0.5,1.2-1.4,2.2-2.8c0.6-0.9,1.6-2.4,2.8-4.5h-0.3l-3,0.1
		c-1.4,0.1-2.2,0.1-2.3,0.1c-2.6,0-3.8-1.1-3.8-3.2c0-1.7,0.7-2.8,2-3.2c0.5-0.1,1.2-0.3,2.1-0.3c2,0,5-0.1,9-0.4
		c0.7-1.4,1.6-3.4,2.9-6.1c0.8-1.7,2-2.6,3.5-2.6c0.9,0,1.8,0.3,2.5,0.7c0.9,0.5,1.3,1.4,1.3,2.3c0,0.7-0.6,2.2-1.9,4.4l-0.2,0.4
		c2.4-0.3,4.6-0.7,6.6-1.2c0.5-0.1,1-0.2,1.4-0.2c1.4,0,2.2,0.6,2.8,1.8c0.3,0.5,0.4,1.2,0.4,1.7c0,1.6-1,2.6-3,3.2
		c-2.4,0.6-6.4,1.2-11.8,1.8c-0.3,0.4-0.7,1.1-1.2,1.9c-1,1.6-1.9,2.9-2.6,4l0.1,0.2c2-0.7,3.8-1.2,5.4-1.2c3.1,0,5.3,1.6,6.5,4.9
		c2.8-1.5,6.1-2.9,9.8-4.2c0.9-0.3,1.7-0.5,2.4-0.5c1.2,0,2.1,0.5,2.7,1.4c0.5,0.7,0.7,1.5,0.7,2.4c0,1.1-0.5,1.9-1.4,2.4
		c-0.2,0.1-0.7,0.3-1.4,0.5C115.1,132.4,111.1,134,107,135.8z"/>
	<path class="st0" d="M87.4,184.8v10c0,1.3,0.6,2,1.8,2c1.4,0,3-0.3,4.7-0.7c0.4-0.1,0.7-0.2,1.2-0.2c1.4,0,2.2,0.6,2.7,1.9
		c0.1,0.4,0.3,0.9,0.3,1.5c0,1.9-0.9,3.1-2.9,3.6c-2.2,0.5-4.7,0.7-7.6,0.7c-4.9,0-7.3-2-7.3-5.9v-11.5l-3.5,0.7
		c-0.3,0.1-0.5,0.1-0.8,0.1c-1.4,0-2.2-0.7-2.7-2c-0.2-0.5-0.3-1.2-0.3-1.8c0-1.8,0.7-2.8,2.3-3l5.1-0.9v-11c0-1.2,0.5-2,1.6-2.5
		c0.6-0.3,1.4-0.5,2.1-0.5c1.2,0,2.2,0.3,2.8,1.1c0.5,0.5,0.7,1.2,0.7,1.9v9.7l5.1-0.9c0.2-0.1,0.5-0.1,0.7-0.1
		c1.4,0,2.3,0.7,2.8,2.1c0.2,0.6,0.3,1.2,0.3,1.7c0,1.8-0.7,2.8-2.3,3L87.4,184.8z M112.6,177.9c-0.5,6.9-2,13.5-4.3,19.7
		c-2.8,7.6-6.8,13.5-12,17.7c-1.2,0.9-2.2,1.5-3,1.5c-0.6,0-1.2-0.3-1.8-0.7c-0.5-0.4-0.7-1-0.7-1.6c0-0.7,0.3-1.4,0.7-2.1
		c0.1-0.1,0.5-0.6,1.2-1.4c4.7-5.1,8.1-11.8,10.3-19.9c1.2-4.5,2-8.7,2.2-12.5l-5.4,0.5c-0.1,0-0.2,0-0.3,0c-2,0-3-1.2-3-3.7
		c0-1.2,0.4-2.2,1.2-2.8c0.4-0.3,0.9-0.5,1.5-0.5l20.7-1.8c0.3-0.1,0.7-0.1,1.1-0.1c3.7,0,5.5,1.9,5.5,5.8c0,3.1-0.3,8.5-1,16.2
		c-0.8,9.9-2,17.1-3.6,21.2c-1.1,3-2.8,4.5-5.3,4.5c-1.6,0-3.7-0.6-6.4-1.8c-3-1.4-4.6-2.7-4.6-3.9c0-0.4,0.1-0.7,0.3-1.2
		c0.3-0.7,1-1.2,1.9-1.2c0.4,0,0.9,0.1,1.6,0.3c1.5,0.4,2.6,0.6,3.6,0.6c1,0,1.8-0.5,2.2-1.5c0.9-1.8,1.7-5.4,2.5-10.9
		c1-6.6,1.6-12.9,1.6-18.7c0-1.4-0.5-2.1-1.5-2.1c-0.1,0-0.2,0-0.3,0L112.6,177.9z"/>
	<path class="st0" d="M92.5,249.7c0.5-1.2,1.4-2.5,2.4-4c0.4-0.6,0.9-0.9,1.5-0.9c0.4,0,0.7,0.1,1.1,0.3c0.6,0.3,0.9,0.9,0.9,1.5
		c0,0.5-0.3,1.2-0.7,2.2c-1.4,2.6-2.4,5.1-3.4,7.4c-0.7,2-1.9,3-3.5,3c-1.1,0-2.1-0.6-3-1.8c-1.8-2.4-2.6-6.2-2.6-11.4
		c0-5.1,0.4-10.1,1.3-14.8C86.8,229,88,228,90,228c1.2,0,2.2,0.3,2.8,1.1c0.5,0.6,0.8,1.3,0.8,2.2c0,0.3-0.1,0.9-0.2,1.7
		c-0.8,4.7-1.2,8.9-1.2,12.7C92.2,247.5,92.3,248.9,92.5,249.7z M110.7,228.1c1.9,0,3.1,1,3.7,3c0.8,3.1,1.2,7.9,1.2,14.2
		c0,12.5-2.8,21.8-8.3,27.9c-3,3.4-5.4,5-7.2,5c-0.9,0-1.6-0.3-2-1c-0.3-0.5-0.5-1-0.5-1.6c0-0.9,0.5-1.8,1.4-2.7
		c2.4-2.4,4.1-4.6,5.3-6.7c2.6-4.8,3.9-11.8,3.9-21.1c0-5.1-0.3-9.5-0.7-13c-0.1-0.3-0.1-0.6-0.1-0.9
		C107,229.1,108.2,228.1,110.7,228.1z"/>
	<path class="st0" d="M25.2,6.8v42.9c0,0.7-0.3,1.4-0.7,1.9c-0.7,0.7-1.6,1-2.7,1c-1.5,0-2.6-0.5-3.2-1.6c-0.2-0.4-0.3-0.9-0.3-1.4
		V39.3c-3,1.1-6,2-8.9,2.7c-3.2,0.9-5.1,1.3-5.7,1.3c-1.2,0-2.1-0.5-2.7-1.4c-0.4-0.6-0.5-1.3-0.5-2.1c0-1.6,0.7-2.6,2.2-3.1
		c0.3-0.1,0.9-0.3,2.1-0.5l0.4-0.1V8.5L3.4,8.7c-0.1,0-0.1,0-0.3,0c-0.8,0-1.5-0.3-2-0.8C0.3,7.2,0,6.4,0,5.3c0-1.9,0.9-3,2.6-3.1
		L26.1,0c0.2,0,0.3,0,0.3,0c0.7-0.1,1.3,0.2,1.8,0.7c0.7,0.6,1.1,1.6,1.1,2.7c0,1.3-0.4,2.2-1.2,2.8c-0.3,0.3-0.7,0.4-1.2,0.5
		L25.2,6.8z M18.6,7.4L11.8,8v4.9l6.8-0.7V7.4z M18.6,17.7l-6.8,0.7v5.1l6.8-0.7V17.7z M11.8,34.9c2.3-0.5,4.6-1.1,6.8-1.7v-5.1
		l-6.8,0.7V34.9z M40.7,27.7c2-4.1,3.5-8.2,4.3-12.1c0.3-1.2,0.3-1.9,0.3-2.2c0-0.7-0.4-1-1.2-1c-0.1,0-0.3,0-0.4,0l-12.5,1.3
		c-0.3,0-0.4,0-0.5,0c-2.1,0-3.2-1.2-3.2-3.7c0-1.9,0.9-3,2.6-3.1l16.6-1.4c0.5-0.1,0.8-0.1,1.2-0.1c3.4,0,5.1,1.6,5.1,4.7
		c0,1-0.3,2.8-0.9,5.2c-1.6,6.4-4.1,12.5-7.5,18.3c3.2,4.4,6.9,8.4,11.2,12c1.2,0.9,1.7,1.7,1.7,2.3c0,0.5-0.5,1-1.4,1.4
		c-2.2,0.7-3.9,1.2-5.2,1.2c-1.1,0-2.1-0.5-3.1-1.6c-2.2-2.4-4.6-5.5-7.1-9.4l-0.2,0.3c-2.9,3.7-6.1,6.9-9.5,9.5
		c-0.7,0.6-1.5,0.9-2.2,0.9c-0.7,0-1.4-0.3-2-1c-0.4-0.5-0.6-1-0.6-1.6c0-0.7,0.4-1.5,1.2-2.2c4-3.8,7.3-7.6,9.9-11.5
		c-2.8-5.1-4.9-9.5-6.3-13.3c-0.5-1.5-0.9-2.5-0.9-3c0-0.9,0.5-1.6,1.4-2c0.5-0.2,0.9-0.3,1.4-0.3c0.9,0,1.6,0.4,2.1,1.2
		c0.2,0.3,0.6,1.3,1.4,3C37.4,21.7,38.8,24.6,40.7,27.7z"/>
	<path class="st0" d="M19.4,83.1c0.5-1.2,1.4-2.5,2.4-4c0.4-0.6,0.9-0.9,1.5-0.9c0.4,0,0.7,0.1,1.1,0.3c0.6,0.3,0.9,0.9,0.9,1.5
		c0,0.5-0.3,1.2-0.7,2.2c-1.4,2.6-2.4,5.1-3.4,7.4c-0.7,2-1.9,3-3.5,3c-1.1,0-2.1-0.6-3-1.8c-1.8-2.4-2.6-6.2-2.6-11.4
		c0-5.1,0.4-10.1,1.3-14.8c0.4-2.1,1.6-3.1,3.6-3.1c1.2,0,2.2,0.3,2.8,1.1c0.5,0.6,0.8,1.3,0.8,2.2c0,0.3-0.1,0.9-0.2,1.7
		c-0.8,4.7-1.2,8.9-1.2,12.7C19.2,80.9,19.2,82.3,19.4,83.1z M37.6,61.5c1.9,0,3.1,1,3.7,3c0.8,3.1,1.2,7.9,1.2,14.2
		c0,12.5-2.8,21.8-8.3,27.9c-3,3.4-5.4,5-7.2,5c-0.9,0-1.6-0.3-2-1c-0.3-0.5-0.5-1-0.5-1.6c0-0.9,0.5-1.8,1.4-2.7
		c2.4-2.4,4.1-4.6,5.3-6.7c2.6-4.8,3.9-11.8,3.9-21.1c0-5.1-0.3-9.5-0.7-13c-0.1-0.3-0.1-0.6-0.1-0.9C33.9,62.5,35.1,61.5,37.6,61.5
		z"/>
	<path class="st0" d="M26.3,127v-5.7c0-1,0.3-1.8,1-2.3c0.6-0.5,1.4-0.7,2.4-0.7c2.4,0,3.6,1,3.6,3v5.3c2.5-0.1,4.7-0.2,6.7-0.2
		c2.8,0,4.3,1.1,4.3,3.2c0,1.6-0.6,2.6-1.8,3.1c-0.5,0.2-1.2,0.3-2.2,0.3c-1.8,0-4,0.1-6.4,0.1h-0.7v6.8c1.7-0.1,3.2-0.4,4.7-0.7
		c0.4-0.1,0.9-0.2,1.3-0.2c2.1,0,3.1,1.2,3.1,3.6c0,1.5-0.9,2.5-2.7,3c-1.2,0.3-3.4,0.7-6.4,1v9.3c4.8,1.7,8.3,3.2,10.6,4.6
		c1.6,1,2.4,2.2,2.4,3.6c0,0.6-0.1,1.2-0.5,1.8c-0.5,1.2-1.6,1.8-2.8,1.8c-0.7,0-1.6-0.3-2.6-1c-2.3-1.6-4.8-3-7.6-4.3
		c-0.9,2.9-2.6,4.9-5.1,5.9c-1.9,0.8-4.3,1.2-7.2,1.2c-3.2,0-6-0.8-8.3-2.4c-2.5-1.7-3.7-3.9-3.7-6.4c0-1.9,0.9-3.5,2.7-4.9
		c2.3-1.8,5.3-2.6,8.9-2.6c1.8,0,3.9,0.2,6.2,0.6v-6.8c-1.6,0.1-3,0.1-4.4,0.1c-2.9,0-4.9-0.1-6-0.3c-2-0.3-2.9-1.4-2.9-3.2
		c0-2.2,1-3.2,3-3.2c0.3,0,0.6,0,1.2,0.1c1.3,0.1,3,0.2,5.1,0.2c1.2,0,2.5,0,4.1-0.1v-7.1c-4.5,0.3-8.5,0.7-12.1,1.2
		c-0.4,0.1-0.7,0.1-1,0.1c-2.4,0-3.6-1.2-3.6-3.6c0-1.6,0.9-2.6,2.8-3C15.4,127.8,20,127.4,26.3,127z M26.1,159.9
		c-2.5-0.7-4.7-1.1-6.4-1.1c-1.6,0-2.8,0.3-3.8,0.9c-0.7,0.4-1,0.9-1,1.4c0,0.6,0.4,1.2,1.2,1.8c1.2,0.7,2.6,1.2,4.4,1.2
		c3,0,4.7-0.9,5.3-2.6C25.9,161,26.1,160.5,26.1,159.9z"/>
	<path class="st0" d="M28.2,188c-0.1-2.1-0.1-4.2-0.3-6.3c0-0.3,0-0.5,0-0.6c0-2.1,1.2-3.1,3.7-3.1c2.4,0,3.7,1.2,3.7,3.5
		c0,0.1,0.1,1.9,0.1,5.4v0.7c3.9-0.3,7-0.5,9.6-0.7c1.9-0.1,3.2-0.3,3.9-0.3c0.3,0,0.5,0,0.7,0c1,0,1.8,0.4,2.4,1.2
		c0.5,0.6,0.7,1.4,0.7,2.2c0,1.8-0.7,2.8-2.1,3.4c-0.3,0.1-1,0.2-2,0.3c-1.4,0.1-4.6,0.3-9.6,0.6l-2.4,0.1l-1.2,0.1
		c0.1,6.6,0.2,10.8,0.2,12.5c0,2.6-0.3,4.5-0.9,5.9c-0.3,7.2-3,12.8-8.3,16.7c-1.4,1.1-2.6,1.6-3.5,1.6c-0.9,0-1.6-0.3-2.1-0.9
		c-0.4-0.5-0.6-1.1-0.6-1.7c0-0.9,0.7-2,2-3c2.1-1.7,3.7-3.9,4.7-6.6c-0.6,0.1-1.2,0.2-1.6,0.2c-2,0-4.2-1.1-6.4-3.2
		c-2.4-2.3-3.5-4.8-3.5-7.5c0-3,1.4-5.5,4.3-7.8c2-1.6,3.9-2.3,5.8-2.3c0.9,0,2,0.2,3.1,0.7c0-0.3-0.1-1.2-0.1-2.4
		c0-0.4,0-0.9,0-1.6c-5.5,0.5-10.5,0.9-15,1.4c-4.5,0.4-6.8,0.6-7.1,0.6c-2.2,0-3.4-1.2-3.4-3.6c0-2,1-3.1,3-3.4
		c1.2-0.1,8.1-0.7,20.5-1.7L28.2,188z M28.2,211.2l0.1-1.8c0-4-0.8-6-2.5-6c-0.8,0-1.6,0.4-2.6,1.3c-1,1-1.6,2-1.6,3
		c0,1.5,0.7,2.8,2.1,4.1c0.8,0.7,1.6,1.2,2.2,1.2c0.6,0,1.2-0.3,1.8-1.1C28,211.5,28.2,211.3,28.2,211.2z"/>
</g>
</svg>
