<?xml version="1.0" encoding="utf-8"?>
<!-- Generator: Adobe Illustrator 21.0.0, SVG Export Plug-In . SVG Version: 6.00 Build 0)  -->
<svg version="1.1" id="圖層_1" xmlns="http://www.w3.org/2000/svg" xmlns:xlink="http://www.w3.org/1999/xlink" x="0px" y="0px"
	 viewBox="0 0 91.8 784" style="enable-background:new 0 0 91.8 784;" xml:space="preserve">
<g>
	<path d="M23.9,13.4l3-0.2c25.8-2,39.7-2.9,41.6-2.9c2.6,0,4.8,0.9,6.6,2.6c1.6,1.6,2.5,3.7,2.5,6.2c0,1.7-1.6,11.2-4.9,28.5
		l-0.4,2.2c2,0.8,3,2.6,3,5.3c0,2.6-1.3,4.2-4,4.8c-0.5,0.1-1.8,0.2-3.8,0.2c-15.3,0-27.6,0.4-37.1,1.2c-0.8,2.5-2.7,3.7-5.8,3.7
		c-2.3,0-3.8-1.1-4.6-3.4c-0.2-0.5-0.4-2.1-0.7-4.6c-0.6-5.3-2.1-16.1-4.4-32.3c-0.7-4.6-1-7.2-1-7.6c0-2.4,1-4,3.1-4.8
		c1-0.4,2-0.6,3.1-0.6C21.5,11.5,22.8,12.1,23.9,13.4z M61.7,49.5c1.4-8.4,2.7-17,4-25.9c0.1-0.5,0.1-0.9,0.1-1.2
		c0-1-0.6-1.5-1.8-1.5c-1.8,0-11.3,0.7-28.6,2.1c-3,0.2-6.3,0.5-9.7,0.7c1.2,10.5,2.3,19.7,3.4,27.6l2.9-0.2
		C44.8,50.3,54.7,49.7,61.7,49.5z"/>
	<path d="M59,133.6c0.9-6.5,2.1-15.9,3.5-28.2c0.1-0.6,0.1-1,0.1-1.3c0-0.8-0.5-1.2-1.4-1.2c-0.4,0-1.4,0.1-2.9,0.2
		c-2.3,0.2-6.9,0.6-14,1.2c-7.4,0.6-14.2,1.1-20.5,1.8c-0.6,0.1-1.1,0.1-1.4,0.1c-1.6,0-2.9-0.5-3.9-1.5c-0.8-0.9-1.2-2-1.2-3.4
		c0-2.5,0.9-4.2,2.8-5.1c0.6-0.3,2.3-0.5,4.9-0.7c24.3-2,37.4-3.1,39.2-3.3c0.5-0.1,1-0.1,1.3-0.1c3.8,0,6.3,1.6,7.8,4.7
		c0.5,1.2,0.8,2.4,0.8,3.8c0,0.4-0.1,1.5-0.3,3.3c-1.6,13.6-2.9,23.5-3.7,29.8c1.9,0.8,2.9,2.4,2.9,4.8c0,2.3-1,3.9-3.1,4.7
		c-0.8,0.3-2.4,0.5-5,0.6c-8.2,0.4-22.1,1.3-41.7,2.8c-0.6,0.1-1.1,0.1-1.3,0.1c-3.4,0-5.1-1.8-5.1-5.3c0-3.1,1.6-4.9,4.7-5.3
		C24.8,135.7,37.4,134.9,59,133.6z M70.4,79.8c1.7,0,4.3,1.6,7.9,4.9c3.1,2.8,4.6,5,4.6,6.6c0,1.2-0.5,2.2-1.5,3
		c-0.8,0.6-1.7,1-2.6,1c-1.3,0-2.5-0.8-3.4-2.3c-1.8-2.9-3.9-5.6-6.2-8c-0.8-0.8-1.2-1.7-1.2-2.6C67.9,80.6,68.7,79.8,70.4,79.8z
		 M79.1,73.7c1.8,0,4.3,1.4,7.6,4.2c3.1,2.6,4.6,4.8,4.6,6.6c0,1.3-0.5,2.3-1.5,3c-0.7,0.5-1.5,0.8-2.4,0.8c-1.3,0-2.4-0.7-3.3-2.2
		c-1.6-2.4-3.6-4.8-6.3-7.3c-0.9-0.9-1.4-1.8-1.4-2.6c0-0.6,0.2-1.2,0.7-1.6C77.7,73.9,78.3,73.7,79.1,73.7z"/>
	<path d="M55.5,208.4v8.8c0,1.3-0.3,2.3-1,3.1c-1,1.2-2.4,1.8-4.2,1.8c-3.5,0-5.2-1.7-5.2-5v-3.6c-5.9,3.6-8.8,6.9-8.8,9.8
		c0,2.8,3,4.1,8.9,4.1c6.7,0,12.8-0.4,18.1-1.1c0.6-0.1,1.1-0.1,1.5-0.1c1.6,0,2.9,0.5,3.7,1.4c0.9,0.9,1.4,2.2,1.4,3.9
		c0,2.9-1.7,4.6-5,5.1c-3.4,0.5-9.4,0.8-18,0.8c-6.4,0-11.3-0.9-14.7-2.8c-4.3-2.3-6.5-5.7-6.5-10.2c0-5,2.6-9.5,7.7-13.7
		c2.1-1.7,5.7-4,10.8-7.1l0.6-0.4c-0.6-2.4-2.1-3.6-4.3-3.6c-3.5,0-6.8,1.1-9.6,3.3c-1.6,1.2-3,1.8-4.4,1.8c-1.4,0-2.7-0.6-3.7-1.8
		c-1-1.1-1.5-2.3-1.5-3.6c0-1.2,0.6-2.5,1.8-3.7c0.8-0.8,1.8-2.1,3.2-4.1c0.9-1.4,2.3-3.6,4.1-6.7l-0.5,0l-4.4,0.2
		c-2,0.1-3.2,0.1-3.4,0.1c-3.8,0-5.6-1.6-5.6-4.7c0-2.5,1-4.2,3-4.8c0.7-0.2,1.7-0.4,3.1-0.4c3,0,7.4-0.2,13.3-0.6c1-2,2.4-5,4.3-9
		c1.2-2.5,2.9-3.8,5.1-3.8c1.3,0,2.6,0.4,3.7,1.1c1.3,0.8,1.9,2,1.9,3.4c0,1.1-0.9,3.3-2.8,6.5l-0.3,0.6c3.5-0.4,6.8-1,9.8-1.8
		c0.8-0.2,1.5-0.3,2-0.3c2,0,3.3,0.9,4.1,2.6c0.4,0.8,0.6,1.7,0.6,2.5c0,2.4-1.5,3.9-4.5,4.7c-3.6,0.9-9.4,1.8-17.4,2.7
		c-0.4,0.6-1,1.6-1.8,2.8c-1.5,2.3-2.8,4.3-3.9,5.9l0.2,0.3c2.9-1.1,5.6-1.7,8-1.7c4.6,0,7.8,2.4,9.6,7.3c4.2-2.2,9-4.3,14.5-6.2
		c1.3-0.5,2.5-0.7,3.6-0.7c1.8,0,3.1,0.7,4,2.1c0.7,1,1,2.2,1,3.5c0,1.6-0.7,2.8-2.1,3.6c-0.3,0.2-1,0.5-2.1,0.8
		C67.5,203.4,61.6,205.8,55.5,208.4z"/>
	<path d="M26.5,280.8v14.8c0,1.9,0.9,2.9,2.6,2.9c2.1,0,4.4-0.4,6.9-1.1c0.6-0.2,1.1-0.3,1.7-0.3c2,0,3.3,0.9,4,2.8
		c0.2,0.6,0.4,1.4,0.4,2.2c0,2.8-1.4,4.6-4.3,5.3c-3.3,0.8-7,1.1-11.3,1.1c-7.2,0-10.8-2.9-10.8-8.7v-17.1l-5.2,1
		c-0.4,0.1-0.7,0.1-1.2,0.1c-2,0-3.3-1-4-2.9c-0.3-0.8-0.4-1.7-0.4-2.6c0-2.6,1.1-4.1,3.4-4.5l7.5-1.4V256c0-1.7,0.8-2.9,2.4-3.7
		c0.9-0.5,2-0.7,3.1-0.7c1.8,0,3.2,0.5,4.2,1.6c0.7,0.7,1.1,1.7,1.1,2.8v14.4l7.6-1.4c0.3-0.1,0.7-0.1,1.1-0.1c2.1,0,3.4,1,4.1,3.1
		c0.3,0.9,0.4,1.7,0.4,2.5c0,2.6-1.1,4.1-3.4,4.5L26.5,280.8z M63.7,270.5c-0.8,10.2-2.9,19.9-6.3,29.1
		c-4.2,11.2-10.1,19.9-17.8,26.1c-1.8,1.4-3.2,2.2-4.4,2.2c-0.9,0-1.8-0.4-2.6-1.1c-0.7-0.6-1.1-1.5-1.1-2.4c0-1.1,0.4-2.1,1.1-3.1
		c0.1-0.2,0.8-0.9,1.8-2.1c6.9-7.6,11.9-17.4,15.2-29.4c1.8-6.7,2.9-12.8,3.3-18.4l-8,0.7c-0.1,0-0.3,0-0.5,0c-3,0-4.4-1.8-4.4-5.5
		c0-1.8,0.6-3.2,1.8-4.2c0.6-0.5,1.4-0.7,2.2-0.8l30.6-2.7c0.5-0.1,1.1-0.1,1.6-0.1c5.4,0,8.2,2.8,8.2,8.5c0,4.6-0.5,12.6-1.5,24
		c-1.2,14.7-3,25.2-5.3,31.3c-1.6,4.5-4.2,6.7-7.8,6.7c-2.3,0-5.5-0.9-9.5-2.7c-4.5-2-6.8-4-6.8-5.8c0-0.6,0.1-1.1,0.4-1.8
		c0.5-1.1,1.5-1.7,2.8-1.7c0.6,0,1.4,0.1,2.4,0.4c2.2,0.6,3.9,0.9,5.3,0.9c1.5,0,2.6-0.7,3.3-2.2c1.3-2.7,2.5-8,3.7-16.1
		c1.5-9.7,2.3-19,2.3-27.7c0-2-0.7-3.1-2.2-3.1c-0.2,0-0.3,0-0.4,0L63.7,270.5z"/>
	<path d="M34,376.7c0.8-1.7,2-3.7,3.6-5.9c0.6-0.9,1.3-1.3,2.2-1.3c0.6,0,1.1,0.2,1.6,0.5c0.9,0.5,1.3,1.3,1.3,2.2
		c0,0.8-0.4,1.8-1.1,3.2c-2,3.8-3.6,7.5-5,11c-1.1,2.9-2.8,4.4-5.2,4.4c-1.6,0-3.1-0.9-4.4-2.7c-2.6-3.5-3.9-9.1-3.9-16.9
		c0-7.6,0.6-14.9,1.9-21.9c0.6-3.1,2.3-4.6,5.3-4.6c1.8,0,3.2,0.5,4.2,1.6c0.8,0.8,1.2,1.9,1.2,3.3c0,0.5-0.1,1.3-0.3,2.5
		c-1.2,6.9-1.8,13.2-1.8,18.7C33.7,373.5,33.8,375.4,34,376.7z M60.8,344.8c2.8,0,4.6,1.5,5.4,4.4c1.2,4.6,1.8,11.6,1.8,21
		c0,18.4-4.1,32.2-12.3,41.2c-4.5,5-8,7.4-10.7,7.4c-1.3,0-2.3-0.5-3-1.5c-0.5-0.7-0.7-1.5-0.7-2.3c0-1.3,0.7-2.6,2.1-4
		c3.5-3.5,6.1-6.8,7.8-9.9c3.8-7.1,5.7-17.5,5.7-31.2c0-7.6-0.4-14-1.1-19.2c-0.1-0.5-0.1-0.9-0.1-1.3
		C55.5,346.3,57.3,344.8,60.8,344.8z"/>
	<path d="M42.6,441.9v63.4c0,1.1-0.4,2.1-1.1,2.8c-1,1-2.3,1.5-4,1.5c-2.2,0-3.8-0.8-4.7-2.3c-0.3-0.6-0.5-1.3-0.5-2V490
		c-4.4,1.6-8.8,2.9-13.2,4c-4.8,1.3-7.6,1.9-8.4,1.9c-1.8,0-3.1-0.7-4-2.1C6.3,493,6,492,6,490.8c0-2.3,1.1-3.9,3.3-4.6
		c0.4-0.1,1.4-0.4,3.1-0.7l0.6-0.1v-40.9l-2.6,0.2c-0.1,0-0.2,0-0.5,0c-1.2,0-2.2-0.4-3-1.2c-1-1-1.5-2.2-1.5-3.8
		c0-2.8,1.3-4.4,3.8-4.6l34.8-3.2c0.3,0,0.5,0,0.5,0c1-0.1,1.9,0.3,2.7,1c1.1,0.9,1.6,2.3,1.6,4c0,1.9-0.6,3.3-1.8,4.1
		c-0.5,0.4-1.1,0.6-1.8,0.7L42.6,441.9z M32.8,442.8l-10.1,0.9v7.2l10.1-1V442.8z M32.8,458.1l-10.1,1v7.5l10.1-1.1V458.1z
		 M22.8,483.3c3.4-0.8,6.8-1.6,10.1-2.5v-7.5l-10.1,1.1V483.3z M65.6,472.8c3-6.1,5.2-12.1,6.4-17.9c0.4-1.7,0.5-2.8,0.5-3.3
		c0-1-0.6-1.5-1.7-1.5c-0.2,0-0.4,0-0.6,0l-18.5,1.9c-0.4,0-0.6,0-0.7,0c-3.1,0-4.7-1.8-4.7-5.4c0-2.8,1.3-4.4,3.8-4.6l24.5-2.3
		c0.7-0.1,1.2-0.1,1.7-0.1c5,0,7.5,2.3,7.5,6.9c0,1.5-0.4,4.1-1.3,7.7c-2.3,9.5-6,18.5-11.1,27c4.7,6.5,10.2,12.4,16.5,17.7
		c1.7,1.4,2.5,2.5,2.5,3.4c0,0.8-0.7,1.5-2.1,2c-3.3,1.1-5.8,1.7-7.7,1.7c-1.6,0-3.1-0.8-4.6-2.3c-3.3-3.5-6.8-8.1-10.5-13.9
		l-0.3,0.4c-4.3,5.5-9,10.2-14.1,14.1c-1.1,0.9-2.2,1.3-3.2,1.3c-1.1,0-2-0.5-2.9-1.5c-0.6-0.7-0.9-1.5-0.9-2.3
		c0-1.1,0.6-2.2,1.8-3.3c5.9-5.6,10.8-11.2,14.6-17c-4.1-7.6-7.2-14.1-9.3-19.6c-0.8-2.2-1.3-3.7-1.3-4.4c0-1.4,0.7-2.4,2-3
		c0.7-0.3,1.4-0.5,2.1-0.5c1.3,0,2.3,0.6,3.1,1.7c0.3,0.4,0.9,1.9,2,4.4C60.5,463.9,62.7,468.1,65.6,472.8z"/>
	<path d="M34,554.6c0.8-1.7,2-3.7,3.6-5.9c0.6-0.9,1.3-1.3,2.2-1.3c0.6,0,1.1,0.2,1.6,0.5c0.9,0.5,1.3,1.3,1.3,2.2
		c0,0.8-0.4,1.8-1.1,3.2c-2,3.8-3.6,7.5-5,11c-1.1,2.9-2.8,4.4-5.2,4.4c-1.6,0-3.1-0.9-4.4-2.7c-2.6-3.5-3.9-9.1-3.9-16.9
		c0-7.6,0.6-14.9,1.9-21.9c0.6-3.1,2.3-4.6,5.3-4.6c1.8,0,3.2,0.5,4.2,1.6c0.8,0.9,1.2,1.9,1.2,3.3c0,0.5-0.1,1.3-0.3,2.5
		c-1.2,6.9-1.8,13.2-1.8,18.7C33.7,551.4,33.8,553.4,34,554.6z M60.8,522.7c2.8,0,4.6,1.5,5.4,4.4c1.2,4.6,1.8,11.6,1.8,21
		c0,18.4-4.1,32.2-12.3,41.2c-4.5,5-8,7.4-10.7,7.4c-1.3,0-2.3-0.5-3-1.5c-0.5-0.7-0.7-1.5-0.7-2.3c0-1.3,0.7-2.6,2.1-4
		c3.5-3.5,6.1-6.8,7.8-9.9c3.8-7.1,5.7-17.5,5.7-31.2c0-7.6-0.4-14-1.1-19.2c-0.1-0.5-0.1-0.9-0.1-1.3
		C55.5,524.2,57.3,522.7,60.8,522.7z"/>
	<path d="M44.1,619.4V611c0-1.5,0.5-2.6,1.5-3.4c0.9-0.7,2.1-1.1,3.5-1.1c3.5,0,5.3,1.5,5.3,4.5v7.9c3.7-0.2,7-0.3,9.9-0.3
		c4.2,0,6.4,1.6,6.4,4.8c0,2.3-0.9,3.9-2.6,4.6c-0.7,0.3-1.8,0.4-3.3,0.4c-2.7,0-5.9,0.1-9.4,0.2h-1v10.1c2.5-0.2,4.8-0.6,6.9-1.1
		c0.6-0.2,1.3-0.3,1.9-0.3c3.1,0,4.6,1.8,4.6,5.3c0,2.2-1.3,3.7-4,4.4c-1.8,0.5-5,1-9.5,1.5v13.8c7.1,2.5,12.3,4.8,15.6,6.8
		c2.4,1.5,3.6,3.2,3.6,5.3c0,0.9-0.2,1.8-0.7,2.7c-0.8,1.8-2.3,2.7-4.2,2.7c-1.1,0-2.4-0.5-3.9-1.5c-3.4-2.3-7.1-4.4-11.2-6.4
		c-1.3,4.3-3.8,7.2-7.5,8.7c-2.8,1.2-6.3,1.8-10.6,1.8c-4.8,0-8.9-1.2-12.3-3.5c-3.7-2.5-5.5-5.7-5.5-9.4c0-2.8,1.3-5.1,4-7.2
		c3.4-2.6,7.8-3.9,13.2-3.9c2.7,0,5.7,0.3,9.1,0.9v-10.1c-2.3,0.1-4.5,0.1-6.5,0.1c-4.3,0-7.3-0.1-8.9-0.4c-2.9-0.4-4.3-2-4.3-4.8
		c0-3.2,1.5-4.8,4.5-4.8c0.4,0,0.9,0,1.7,0.1c1.9,0.2,4.4,0.3,7.5,0.3c1.7,0,3.7,0,6-0.1v-10.5c-6.7,0.5-12.6,1.1-17.9,1.8
		c-0.6,0.1-1.1,0.1-1.5,0.1c-3.5,0-5.3-1.8-5.3-5.3c0-2.4,1.4-3.9,4.2-4.4C28.1,620.7,35,620,44.1,619.4z M43.9,668.1
		c-3.7-1.1-6.9-1.6-9.5-1.6c-2.3,0-4.2,0.4-5.6,1.3c-1,0.6-1.5,1.3-1.5,2.1c0,0.9,0.6,1.8,1.8,2.6c1.7,1.1,3.9,1.7,6.5,1.7
		c4.4,0,7-1.3,7.8-3.9C43.7,669.7,43.8,669,43.9,668.1z"/>
	<path d="M47,709.6c-0.1-3.1-0.2-6.2-0.4-9.3c0-0.4,0-0.7,0-0.9c0-3.1,1.8-4.6,5.5-4.6c3.6,0,5.4,1.7,5.4,5.1c0,0.2,0.1,2.8,0.2,8
		l0,1c5.7-0.4,10.4-0.8,14.2-1.1c2.8-0.2,4.7-0.4,5.8-0.4c0.5,0,0.8,0,1.1,0c1.5,0,2.7,0.6,3.5,1.7c0.7,0.9,1,2,1,3.3
		c0,2.6-1,4.2-3.1,5c-0.5,0.1-1.5,0.3-3,0.4c-2.1,0.1-6.8,0.4-14.2,0.9l-3.5,0.2l-1.7,0.1c0.2,9.8,0.3,15.9,0.3,18.4
		c0,3.8-0.5,6.7-1.4,8.7c-0.4,10.7-4.5,18.9-12.2,24.7c-2.1,1.6-3.8,2.3-5.2,2.3c-1.3,0-2.4-0.5-3.1-1.4c-0.6-0.8-0.9-1.6-0.9-2.5
		c0-1.4,1-2.9,3-4.5c3.1-2.5,5.4-5.8,6.9-9.8c-0.9,0.2-1.7,0.3-2.3,0.3c-3,0-6.2-1.6-9.4-4.7c-3.5-3.4-5.2-7.1-5.2-11.1
		c0-4.4,2.1-8.2,6.3-11.5c2.9-2.3,5.8-3.4,8.6-3.4c1.4,0,3,0.3,4.6,1c0-0.5-0.1-1.7-0.1-3.5c0-0.6,0-1.3,0-2.3
		c-8.1,0.7-15.5,1.4-22.2,2c-6.6,0.6-10.1,0.9-10.5,0.9c-3.3,0-5-1.8-5-5.3c0-3,1.5-4.6,4.5-5c1.8-0.2,11.9-1.1,30.3-2.5L47,709.6z
		 M47,743.9l0.1-2.7c0-5.9-1.2-8.9-3.7-8.9c-1.2,0-2.4,0.6-3.8,1.9c-1.5,1.5-2.3,3-2.3,4.5c0,2.2,1,4.2,3.1,6.1
		c1.2,1.1,2.3,1.7,3.3,1.7c0.9,0,1.8-0.5,2.6-1.6C46.7,744.4,47,744,47,743.9z"/>
</g>
</svg>
